inDegrees=no
num_controls=7
num_derivatives=13
num_iterations=147
num_multipliers=7
num_parameters=0
num_slacks=7
num_states=26
objective=0.497126
objective_accelerations=0.042140
objective_balance=0.003560
objective_effort=0.039640
objective_height=0.405959
objective_ligament=0.005828
solver_duration=1787.346184
status=Solve_Succeeded
success=true
DataType=double
version=3
OpenSimVersion=4.5
endheader
time	/jointset/ground_pelvis/pelvis_tilt/value	/jointset/ground_pelvis/pelvis_tx/value	/jointset/ground_pelvis/pelvis_ty/value	/jointset/hip_r/hip_flexion_r/value	/jointset/hip_r/hip_adduction_r/value	/jointset/hip_r/hip_rotation_r/value	/jointset/back/lumbar_extension/value	/jointset/patellofemoral_r/patellar_flexion_r/value	/jointset/knee_r/knee_flexion_r/value	/jointset/knee_r/knee_adduction_r/value	/jointset/knee_r/knee_rotation_r/value	/jointset/ankle_r/ankle_angle_r/value	/jointset/subtalar_r/subtalar_angle_r/value	/jointset/ground_pelvis/pelvis_tilt/speed	/jointset/ground_pelvis/pelvis_tx/speed	/jointset/ground_pelvis/pelvis_ty/speed	/jointset/hip_r/hip_flexion_r/speed	/jointset/hip_r/hip_adduction_r/speed	/jointset/hip_r/hip_rotation_r/speed	/jointset/back/lumbar_extension/speed	/jointset/patellofemoral_r/patellar_flexion_r/speed	/jointset/knee_r/knee_flexion_r/speed	/jointset/knee_r/knee_adduction_r/speed	/jointset/knee_r/knee_rotation_r/speed	/jointset/ankle_r/ankle_angle_r/speed	/jointset/subtalar_r/subtalar_angle_r/speed	/forceset/tau_hip_flexion_r	/forceset/tau_hip_adduction_r	/forceset/tau_hip_rotation_r	/forceset/tau_knee_flexion_r	/forceset/tau_ankle_angle_r	/forceset/tau_subtalar_angle_r	/forceset/tau_lumbar_extension	lambda_cid13_p0	lambda_cid14_p0	lambda_cid14_p1	lambda_cid14_p2	lambda_cid14_p3	lambda_cid14_p4	lambda_cid14_p5	/jointset/ground_pelvis/pelvis_tilt/accel	/jointset/ground_pelvis/pelvis_tx/accel	/jointset/ground_pelvis/pelvis_ty/accel	/jointset/hip_r/hip_flexion_r/accel	/jointset/hip_r/hip_adduction_r/accel	/jointset/hip_r/hip_rotation_r/accel	/jointset/back/lumbar_extension/accel	/jointset/patellofemoral_r/patellar_flexion_r/accel	/jointset/knee_r/knee_flexion_r/accel	/jointset/knee_r/knee_adduction_r/accel	/jointset/knee_r/knee_rotation_r/accel	/jointset/ankle_r/ankle_angle_r/accel	/jointset/subtalar_r/subtalar_angle_r/accel	gamma_cid13_p0	gamma_cid14_p0	gamma_cid14_p1	gamma_cid14_p2	gamma_cid14_p3	gamma_cid14_p4	gamma_cid14_p5
0.5	-0.1375720235269938	0.03452421223685508	0.8420899174802259	0.8069610521371394	-0.2421266043666402	-0.1001291559395976	-0.3232308798551096	0.7684361073531101	0.7684361073531358	0.0640404845108614	0.174522775607404	0.2683696454076168	0.04125790058980852	-0.3621061765094296	-0.1265457088704874	-0.4143542946713591	1.719799172840039	-0.02619882658310347	0.3780964780533891	-0.5956348122148203	1.882388433547299	1.88238843354697	-0.1859397268082706	-8.877496240743943e-05	0.6127679754757284	0.1264272360913229	-0.1005638435587586	-0.02055233207278489	0.01273880006445359	-0.3522388002944269	0.0728243860366715	-0.01029322404176516	0.1516539833066292	-27.3161973350169	-18.4889198355393	-3.871094857253606	-3.305111413516112	2.500833639077783	-664.3435311885729	59.93753208338688	0.1903228346020288	0.3607352181856689	-0.434279268393842	-0.990547634115705	0.06282820109410069	-0.3395670559333379	1.416854168516313	-1.258773285459218	-1.258773285459224	0.5308455536131678	-0.02341811857525892	-0.565794745074479	0.01116710511488797	-1.326262761827739e-07	-9.228237093563365e-08	1.239983524409228e-06	-7.213230727463736e-07	-8.112412058262158e-08	-1.551709235950794e-07	9.176811164454873e-07
0.51	-0.1411829524525934	0.03327693771734901	0.8379255639548685	0.8241069594180248	-0.2423860505797382	-0.0963657880657029	-0.3291158368293198	0.7871943768724151	0.7871943768724297	0.06220867604586246	0.1745218858551562	0.2744679432293992	0.04252165190759763	-0.3600285617949598	-0.1228967726977281	-0.4184245723352198	1.709153856555986	-0.02568835605124198	0.3745570445511482	-0.5812927907250883	1.869009583000928	1.869009583000872	-0.1804185896119595	-8.587086559827207e-05	0.6068073333868217	0.1263035630956898	-0.1064301278377468	-0.0187106603396579	0.0132173737620288	-0.355793343690481	0.06932066930395597	-0.009514474512903118	0.1569501034638804	-26.16757200213458	-19.78807143303633	-3.883497480719279	-3.162476732285586	2.991822752914547	-668.2522043210294	59.84285087075596	0.2241286082361274	0.3688201335536834	-0.3796553007673015	-1.135798552943972	0.04545091330065053	-0.3643148694164667	1.452444924511806	-1.415798398192843	-1.415798398151892	0.5633988458131793	0.01252751471607815	-0.6238645438084618	-0.02694808232727017	-1.238235294407429e-07	-8.436748100822132e-08	1.160150151455758e-06	-6.744630967393435e-07	-7.937690184047298e-08	-1.371042767790329e-07	8.584049486128353e-07
0.52	-0.1447715756673748	0.03206652202291706	0.8337232569957955	0.8411395585505911	-0.2426403332007042	-0.09263845120123983	-0.3348554598315705	0.8058111863944634	0.8058111863944692	0.06043220916146118	0.1745211017120562	0.2805041015096906	0.0437836037793454	-0.3576450343458237	-0.1191739438556625	-0.4219449814144834	1.697137543176178	-0.02516610815664042	0.3708902761670275	-0.56656801782295	1.854096434095886	1.854096434096103	-0.1748714106887237	-6.765313250611173e-05	0.6003400671775271	0.1260673468830619	-0.1122964121167357	-0.01686898860653299	0.0136959474595979	-0.359347887086535	0.06581695257123985	-0.008735724984043873	0.1622462236211313	-25.00945565363467	-21.0930239956209	-3.893973192417937	-3.023510710627386	3.478245901955332	-672.2571860180155	59.8036478158632	0.2515053815353	0.3755137520469382	-0.3243055514744387	-1.264747053266677	0.06518367364211358	-0.365034032309294	1.493404450997585	-1.565632957193406	-1.565632957193361	0.5360538989981241	-0.02035539131866112	-0.6671195691520786	-0.01134153828409307	-1.150019820189058e-07	-7.63103831167503e-08	1.085170303387849e-06	-6.247136468404971e-07	-7.778231856993299e-08	-1.212010186767279e-07	8.012629040267062e-07
0.53	-0.1483349028473483	0.03089366549822009	0.8294885308398222	0.8580452958726312	-0.2428892690865685	-0.08894834992854089	-0.3404459679319323	0.8242713233854471	0.8242713233854526	0.05871119127238719	0.1745204645591321	0.2864731409530805	0.04504271935297069	-0.3549719223477706	-0.1153884139497791	-0.4249039392583817	1.683786897630769	-0.02461898518345135	0.3671116379736864	-0.5514787605987802	1.837682374882715	1.837682374882677	-0.1693303772844928	-5.842294630480645e-05	0.593388448279058	0.1257366411020492	-0.1180575160044053	-0.01508462574460352	0.01415896068060442	-0.3630104959068596	0.0624621148242828	-0.008090105795093592	0.1674502203359227	-23.84416132022327	-22.36175550986163	-3.965670940773408	-2.863652197532747	3.968144282424375	-676.3330684453696	59.68076485086331	0.2824778048517989	0.3813992910088501	-0.2672668921341156	-1.403686219468681	0.0497744581377047	-0.3871822122189114	1.524912605712581	-1.716558712382342	-1.716558712420638	0.5635244934700657	0.01167139328985435	-0.7211129266996527	-0.04671011917502918	-1.071510399446964e-07	-6.917256720424733e-08	1.019840992789577e-06	-5.799115327634353e-07	-7.636517502683315e-08	-1.076596466503814e-07	7.513938633662308e-07
0.54	-0.1518700461681586	0.02975892960881192	0.8252270999071525	0.8748108341563594	-0.2431326741729051	-0.08529661573764948	-0.3458839382105351	0.8425598665224968	0.8425598665225017	0.05704566300382052	0.1745199415420136	0.2923702782321845	0.0462979728645528	-0.3520082625132593	-0.1115498167979027	-0.4272859367537402	1.669097735513732	-0.02405994825104656	0.363216859805449	-0.5360604534711746	1.819777663309408	1.819777663309115	-0.1637734865868824	-4.482597209073898e-05	0.5859596343203757	0.1252949344744296	-0.1238186198920744	-0.01330026288267256	0.01462197390163324	-0.3666731047271845	0.05910727707732621	-0.00744448660614149	0.1726542170507142	-22.67443118546998	-23.63714578070866	-4.036076749882566	-2.706807291039557	4.456388814459975	-680.516139311449	59.60931972744232	0.3096149488269417	0.3861272012455305	-0.2089134817664703	-1.532450367592483	0.06756646548525747	-0.3882620272885616	1.559214431684772	-1.863763429220441	-1.863763429220511	0.5392253576740035	-0.01948203371611042	-0.762558581194714	-0.03354170760548292	-1.003739591061604e-07	-6.305182922592177e-08	9.651888725832442e-07	-5.405830668296247e-07	-7.514434777792243e-08	-9.673142517615908e-08	7.095715504532872e-07
0.55	-0.1553741664160918	0.02866281681825963	0.8209447643147255	0.8914229139785786	-0.2433703851879717	-0.08168439129154419	-0.3511661145729222	0.8606620269484868	0.8606620269484948	0.05543565521425653	0.1745195201737746	0.2981908305064312	0.04754831720568289	-0.3487708940088076	-0.1076662106437166	-0.4290812997055376	1.653100482134081	-0.0234805950081842	0.3592085688792768	-0.5203260343612438	1.800413867914351	1.800413867914348	-0.1582284138565894	-3.763349120619265e-05	0.5780779737865014	0.1247549878732907	-0.1294507415975433	-0.01173010584378575	0.01507251085217469	-0.3704455464087874	0.05593129667668952	-0.006821129281619997	0.1777476157880424	-21.50335800119438	-24.85866427432543	-4.105382751343465	-2.551663115969508	4.920540245688203	-684.726084641133	59.57929879086828	0.3375244602702568	0.3904420271493608	-0.1498835520869503	-1.666032957405329	0.05335465789070085	-0.4101665233023886	1.587873347391632	-2.008751355279688	-2.00875135523617	0.562212780780462	0.01101305908216033	-0.8119183030615623	-0.06697710003193082	-9.299057788961524e-08	-5.741792814115495e-08	9.065037717256111e-07	-4.989415445578432e-07	-7.228167170619858e-08	-8.880342325445172e-08	6.651379712782874e-07
0.5600000000000001	-0.1588445676471767	0.02760573303017805	0.8166474679227406	0.907868487240151	-0.2436022556897686	-0.07811286053430515	-0.356289483204861	0.8785633366683983	0.8785633366684146	0.05388111106200847	0.1745192093643662	0.3039303764726236	0.04879271088806882	-0.3452644591437181	-0.1037440163037612	-0.4302780966653537	1.635796423384272	-0.02289184559716282	0.3550781220322706	-0.5042989073815369	1.779607522094041	1.779607522094328	-0.1526807591233557	-2.27142066650399e-05	0.569758372709516	0.1241048027255982	-0.1350828633030126	-0.0101599488048993	0.01552304780274649	-0.3742179880903909	0.05275531627605262	-0.006197771957099725	0.1828410145253701	-20.33459887231376	-26.08706821964958	-4.173124857981017	-2.399931814369265	5.383749664034799	-689.0462480237881	59.59816066761559	0.3634282209544956	0.3938448383993947	-0.08920028337020695	-1.793811441624071	0.06944569911706108	-0.4126932114553494	1.617756005640011	-2.152273514270875	-2.15227351427097	0.5397417582621538	-0.01793667298479026	-0.8501466898169276	-0.05558941691620463	-8.487963621945925e-08	-5.236823132865858e-08	8.42979094086419e-07	-4.545243546804969e-07	-6.744877704709904e-08	-8.447568479576214e-08	6.175708725888199e-07
0.5700000000000001	-0.1622785786663175	0.02658802048711903	0.8123412305584207	0.9241345551023464	-0.2438281137125667	-0.07458326266565547	-0.3612512587850149	0.896249441225993	0.896249441226007	0.05238185889612059	0.174518989189869	0.3095845976310793	0.05003015675488808	-0.3414963715774093	-0.09979586496653058	-0.4308668662307588	1.617206492773428	-0.02227669201913678	0.3508171181328614	-0.4880181040229529	1.757380374526829	1.75738037452687	-0.1471777356534592	-2.001514873673516e-05	0.5610176673973549	0.1233678114988459	-0.1405553814513074	-0.008617201432275522	0.01595993783580336	-0.3780657795949717	0.04972207389200622	-0.005703937610091187	0.1877819227206657	-19.17464725297515	-27.27610433469204	-4.301193099226094	-2.226055459093456	5.856741098535193	-693.3432218132191	59.52536827648142	0.3896991156300652	0.3956814396121467	-0.02835520347841719	-1.923188968629193	0.05799823767789345	-0.4365684942703399	1.638958194903429	-2.292871554325256	-2.292871554362107	0.5544746706009849	0.009506165966242716	-0.8962801937267572	-0.08516152633870135	-7.692591275415456e-08	-4.659269648251984e-08	7.823129657055339e-07	-4.087036296158036e-07	-6.398242856573282e-08	-7.798386027259959e-08	5.729264498621891e-07
0.58	-0.1656736687915625	0.02560986568907776	0.808032177516376	0.940208402638871	-0.2440477305894774	-0.07109702773901798	-0.3660490831927956	0.9137062870726396	0.9137062870726497	0.05093741537078143	0.1745188226001079	0.3151493621880512	0.05125975119928307	-0.3374802803646618	-0.09583246730020972	-0.4308412322102693	1.597352358250002	-0.02164361641980978	0.3464055336299871	-0.471508672906937	1.733755779904464	1.733755779904259	-0.1417190310136593	-1.199725942429071e-05	0.5518670524127517	0.1225345182407354	-0.1460278995996026	-0.007074454059653236	0.0163968278688633	-0.3819135710995523	0.04668883150795975	-0.00521010326308404	0.192722830915961	-18.02705859259818	-28.47068667052515	-4.428079972030467	-2.054826145659613	6.325042206829114	-697.7292856343663	59.49416782241672	0.4130289502422583	0.3968941042174405	0.03368043380870694	-2.046652224140189	0.07303010337725156	-0.4428093321483563	1.66348155712635	-2.43176292530142	-2.43176292530154	0.5308779922428549	-0.01687290670796421	-0.932128624305367	-0.07484982318782696	-6.917693857888888e-08	-3.987188419721905e-08	7.253695991494214e-07	-3.610550447722404e-07	-6.22957681297867e-08	-6.867369110733295e-08	5.320883028080899e-07
